<svg width="200" height="200" viewBox="0 0 200 200" fill="none" xmlns="http://www.w3.org/2000/svg">
<circle cx="100" cy="100" r="100" fill="#333333"/>
<path d="M108.062 83.0625L83.0625 108.062C82.4767 108.644 82.0117 109.335 81.6944 110.096C81.3771 110.858 81.2138 111.675 81.2138 112.5C81.2138 113.325 81.3771 114.142 81.6944 114.904C82.0117 115.665 82.4767 116.356 83.0625 116.937C83.6435 117.523 84.3348 117.988 85.0964 118.306C85.858 118.623 86.6749 118.786 87.5 118.786C88.3251 118.786 89.142 118.623 89.9036 118.306C90.6652 117.988 91.3565 117.523 91.9375 116.937L116.938 91.9375C118.114 90.7606 118.776 89.1644 118.776 87.5C118.776 85.8356 118.114 84.2394 116.938 83.0625C115.761 81.8856 114.164 81.2244 112.5 81.2244C110.836 81.2244 109.239 81.8856 108.062 83.0625V83.0625Z" fill="white"/>
<path d="M101.75 133.75L93.75 141.687C89.2589 146.315 83.2215 149.128 76.7893 149.589C70.3571 150.05 63.9802 148.127 58.875 144.187C56.1767 141.964 53.9748 139.199 52.4115 136.072C50.8482 132.944 49.9583 129.524 49.7993 126.031C49.6402 122.538 50.2156 119.051 51.4882 115.794C52.7609 112.538 54.7024 109.584 57.1875 107.125L66.0625 98.1875C66.6483 97.6065 67.1133 96.9152 67.4306 96.1536C67.7479 95.392 67.9112 94.5751 67.9112 93.75C67.9112 92.9249 67.7479 92.108 67.4306 91.3464C67.1133 90.5848 66.6483 89.8935 66.0625 89.3125C65.4815 88.7267 64.7902 88.2617 64.0286 87.9444C63.267 87.6271 62.4501 87.4638 61.625 87.4638C60.7999 87.4638 59.983 87.6271 59.2214 87.9444C58.4598 88.2617 57.7685 88.7267 57.1875 89.3125L49.25 97.3125C42.5635 103.788 38.4537 112.469 37.6835 121.745C36.9134 131.021 39.5353 140.261 45.0625 147.75C48.343 152.006 52.4915 155.515 57.2324 158.044C61.9734 160.573 67.1982 162.065 72.5599 162.419C77.9215 162.774 83.2973 161.984 88.3301 160.101C93.3629 158.219 97.9375 155.287 101.75 151.5L110.625 142.625C111.802 141.448 112.463 139.852 112.463 138.187C112.463 136.523 111.802 134.927 110.625 133.75C109.448 132.573 107.852 131.912 106.187 131.912C104.523 131.912 102.927 132.573 101.75 133.75V133.75ZM147.875 45.125C140.334 39.5404 131.019 36.8918 121.668 37.6739C112.317 38.456 103.571 42.6153 97.0625 49.375L90.3125 56.25C89.541 56.8109 88.8959 57.5275 88.4189 58.3535C87.9419 59.1795 87.6436 60.0964 87.5435 61.045C87.4433 61.9935 87.5435 62.9525 87.8374 63.8599C88.1314 64.7673 88.6126 65.6029 89.25 66.3125C89.831 66.8983 90.5223 67.3633 91.2839 67.6806C92.0455 67.9979 92.8624 68.1612 93.6875 68.1612C94.5126 68.1612 95.3295 67.9979 96.0911 67.6806C96.8527 67.3633 97.544 66.8983 98.125 66.3125L106.25 58.125C110.716 53.477 116.746 50.649 123.176 50.1873C129.605 49.7255 135.978 51.6629 141.062 55.625C143.781 57.8488 146 60.6203 147.576 63.7592C149.152 66.898 150.048 70.3335 150.208 73.8421C150.367 77.3506 149.785 80.8532 148.5 84.1219C147.215 87.3905 145.256 90.3517 142.75 92.8125L133.875 101.75C133.289 102.331 132.824 103.022 132.507 103.784C132.19 104.546 132.026 105.362 132.026 106.187C132.026 107.013 132.19 107.829 132.507 108.591C132.824 109.353 133.289 110.044 133.875 110.625C134.456 111.211 135.147 111.676 135.909 111.993C136.671 112.31 137.487 112.474 138.312 112.474C139.138 112.474 139.954 112.31 140.716 111.993C141.478 111.676 142.169 111.211 142.75 110.625L151.625 101.75C155.401 97.9381 158.324 93.3675 160.2 88.3409C162.077 83.3142 162.864 77.9463 162.509 72.5925C162.155 67.2388 160.667 62.0215 158.144 57.2862C155.621 52.5509 152.121 48.4056 147.875 45.125V45.125Z" fill="white"/>
</svg>
