<svg width="200" height="200" viewBox="0 0 200 200" fill="none" xmlns="http://www.w3.org/2000/svg">
<path d="M100 0C44.7711 0 0 44.7711 0 100C0 155.229 44.7711 200 100 200C155.229 200 200 155.229 200 100C200 44.7711 155.229 0 100 0Z" fill="#40B3E0"/>
<path d="M148.659 57.5235L130.797 147.577C130.797 147.577 128.299 153.823 121.43 150.825L80.2125 119.225L65.225 111.981L39.9953 103.488C39.9953 103.488 36.1235 102.114 35.7485 99.1165C35.3735 96.1189 40.1203 94.4954 40.1203 94.4954L140.414 55.1517C140.414 55.1517 148.658 51.5298 148.658 57.5251" fill="white"/>
<path d="M77.0453 146.565C77.0453 146.565 75.8422 146.453 74.3422 141.706C72.8445 136.96 65.225 111.98 65.225 111.98L125.802 73.5111C125.802 73.5111 129.299 71.3877 129.174 73.5111C129.174 73.5111 129.798 73.8861 127.924 75.6346C126.052 77.3838 80.3383 118.475 80.3383 118.475" fill="#D2E5F1"/>
<path d="M96.0164 131.34L79.714 146.204C79.714 146.204 78.439 147.171 77.0453 146.565L80.1672 118.956" fill="#B5CFE4"/>
</svg>
