<svg width="200" height="200" viewBox="0 0 200 200" fill="none" xmlns="http://www.w3.org/2000/svg">
<circle cx="100" cy="100" r="100" fill="#1DA1F2"/>
<path d="M160 62.5715C155.587 64.5269 150.846 65.8482 145.863 66.4454C151.005 63.3684 154.852 58.5257 156.686 52.8208C151.855 55.6904 146.568 57.7104 141.053 58.7928C137.345 54.8336 132.434 52.2094 127.082 51.3276C121.73 50.4458 116.236 51.3557 111.454 53.9161C106.672 56.4764 102.869 60.544 100.635 65.4872C98.4015 70.4304 97.8624 75.9728 99.1016 81.2538C89.3122 80.7623 79.7355 78.2178 70.9932 73.7856C62.2508 69.3535 54.538 63.1325 48.3555 55.5267C46.2415 59.1733 45.026 63.4012 45.026 67.904C45.0236 71.9575 46.0218 75.949 47.9321 79.5242C49.8423 83.0994 52.6055 86.1478 55.9764 88.399C52.067 88.2746 48.2438 87.2183 44.8252 85.3179V85.635C44.8248 91.3202 46.7913 96.8305 50.3912 101.231C53.991 105.631 59.0024 108.651 64.575 109.777C60.9484 110.758 57.1462 110.903 53.4555 110.199C55.0277 115.091 58.0903 119.369 62.2146 122.434C66.3388 125.498 71.3182 127.197 76.4556 127.291C67.7345 134.137 56.9641 137.851 45.8769 137.834C43.9129 137.835 41.9505 137.72 40 137.491C51.2542 144.727 64.3548 148.567 77.7345 148.552C123.027 148.552 147.786 111.04 147.786 78.5056C147.786 77.4486 147.76 76.3811 147.713 75.3241C152.529 71.8411 156.686 67.5282 159.989 62.5873L160 62.5715V62.5715Z" fill="white"/>
</svg>
