<svg width="200" height="200" viewBox="0 0 200 200" fill="none" xmlns="http://www.w3.org/2000/svg">
<circle cx="100" cy="100" r="100" fill="#00B900"/>
<g clip-path="url(#clip0_107_23)">
<path d="M42.1543 99.7337C42.1511 109.968 44.8249 119.959 49.9081 128.765L41.6667 158.856L72.4607 150.782C80.9455 155.408 90.4985 157.847 100.219 157.851H100.244C132.258 157.851 158.32 131.797 158.333 99.7802C158.339 84.2635 152.301 69.6724 141.335 58.6962C130.367 47.7213 115.783 41.6729 100.244 41.6665C68.2247 41.6665 42.1671 67.716 42.1543 99.7337ZM60.4928 127.249L59.343 125.424C54.5096 117.738 51.9584 108.857 51.962 99.7373C51.9725 73.125 73.6306 51.4738 100.263 51.4738C113.16 51.4793 125.28 56.5069 134.397 65.6287C143.513 74.7515 148.529 86.8785 148.526 99.7765C148.514 126.389 126.855 148.043 100.244 148.043H100.225C91.5604 148.038 83.0624 145.711 75.6513 141.314L73.8876 140.268L55.6138 145.059L60.4928 127.249Z" fill="url(#paint0_linear_107_23)"/>
<path d="M85.7257 75.4582C84.6383 73.0414 83.494 72.9927 82.4599 72.9503C81.6132 72.9138 80.6452 72.9166 79.6781 72.9166C78.7102 72.9166 77.1374 73.2807 75.8081 74.7322C74.4774 76.185 70.7276 79.696 70.7276 86.8368C70.7276 93.9781 75.9289 100.879 76.6539 101.849C77.3799 102.816 86.695 117.939 101.448 123.757C113.709 128.592 116.204 127.63 118.865 127.388C121.526 127.146 127.453 123.878 128.662 120.488C129.872 117.099 129.872 114.195 129.509 113.588C129.146 112.983 128.178 112.62 126.727 111.894C125.275 111.168 118.139 107.657 116.809 107.172C115.478 106.688 114.51 106.447 113.542 107.9C112.574 109.351 109.795 112.62 108.948 113.588C108.102 114.558 107.254 114.679 105.803 113.953C104.351 113.224 99.6764 111.694 94.1307 106.749C89.8158 102.902 86.9028 98.1512 86.0561 96.6979C85.2093 95.2468 85.9654 94.4602 86.6932 93.737C87.3453 93.0867 88.1451 92.0421 88.8716 91.1949C89.5953 90.3473 89.8368 89.7425 90.3208 88.7746C90.8052 87.8057 90.5628 86.958 90.2005 86.232C89.8368 85.5061 87.0163 78.3283 85.7257 75.4586" fill="white"/>
</g>
<defs>
<linearGradient id="paint0_linear_107_23" x1="100" y1="158.856" x2="100" y2="41.6665" gradientUnits="userSpaceOnUse">
<stop stop-color="#F9F9F9"/>
<stop offset="1" stop-color="white"/>
</linearGradient>
<clipPath id="clip0_107_23">
<rect width="116.667" height="117.578" fill="white" transform="translate(41.6667 41.6665)"/>
</clipPath>
</defs>
</svg>
